<svg id="Layer_1" data-name="Layer 1" xmlns="http://www.w3.org/2000/svg" xmlns:xlink="http://www.w3.org/1999/xlink" viewBox="0 0 2560 2560"><defs><style>.cls-1{fill:#fff;}.cls-2{fill:#333;}.cls-3{fill:url(#Third_Gradient);}</style><radialGradient id="Third_Gradient" cx="1280" cy="1280" r="1280" gradientUnits="userSpaceOnUse"><stop offset="0" stop-color="#fc0"/><stop offset="0.26" stop-color="#ffc700"/><stop offset="0.58" stop-color="#ffb800"/><stop offset="0.92" stop-color="#ffa000"/><stop offset="1" stop-color="#f90"/></radialGradient></defs><path class="cls-1" d="M2012.88,230.33C1513.63-119.11,820.74-70.93,374.9,374.9s-494,1138.73-144.57,1638Z"/><path class="cls-1" d="M2012.88,230.33C1513.63-119.11,820.74-70.93,374.9,374.9s-494,1138.73-144.57,1638Z"/><path class="cls-1" d="M2012.88,230.33C1513.63-119.11,820.74-70.93,374.9,374.9s-494,1138.73-144.57,1638Z"/><path class="cls-2" d="M2012.88,230.33C1513.63-119.11,820.74-70.93,374.9,374.9s-494,1138.73-144.57,1638Z"/><path class="cls-3" d="M2329.67,547.12,547.12,2329.67c499.25,349.44,1192.14,301.26,1638-144.57S2679.11,1046.37,2329.67,547.12ZM1280,2336c-123.71,0-224-100.29-224-224s100.29-224,224-224,224,100.29,224,224S1403.71,2336,1280,2336Zm746.7-309.3c-87.47,87.48-229.3,87.48-316.78,0s-87.48-229.3,0-316.78,229.31-87.48,316.78,0S2114.18,1939.23,2026.7,2026.7ZM2112,1504c-123.71,0-224-100.29-224-224s100.29-224,224-224,224,100.29,224,224S2235.71,1504,2112,1504Z"/></svg>