<svg id="Layer_1" data-name="Layer 1" xmlns="http://www.w3.org/2000/svg" xmlns:xlink="http://www.w3.org/1999/xlink"
    viewBox="0 0 40 40">
  <defs>
    <style>
      .cls-1 {
        fill: none;
      }

      .cls-2 {
        /* fill: #333; */
        fill: #eee;
}

      .cls-3 {
        clip-path: url(#clip-path);
      }

      .cls-4 {
        fill: url(#Third_Gradient);
      }
    </style>
    <clipPath id="clip-path">
      <path class="cls-1"
          d="M34.14,34.14A20,20,0,0,1,8.56,36.39L36.39,8.56A20,20,0,0,1,34.14,34.14ZM23.5,33A3.5,3.5,0,1,0,20,36.5,3.5,3.5,0,0,0,23.5,33Zm8.17-6.28a3.5,3.5,0,1,0,0,5A3.49,3.49,0,0,0,31.67,26.72ZM33,16.5A3.5,3.5,0,1,0,36.5,20,3.5,3.5,0,0,0,33,16.5Z" />
    </clipPath>
    <radialGradient id="Third_Gradient" cx="20.01" cy="20" r="20" gradientUnits="userSpaceOnUse">
      <stop offset="0" stop-color="#fc0" />
      <stop offset="0.26" stop-color="#ffc700" />
      <stop offset="0.58" stop-color="#ffb800" />
      <stop offset="0.92" stop-color="#ffa000" />
      <stop offset="1" stop-color="#f90" />
    </radialGradient>
  </defs>
  <path class="cls-2" d="M31.44,3.61A20,20,0,0,0,3.61,31.44Z" />
  <g class="cls-3">
    <rect class="cls-4" x="0.01" width="40" height="40" />
  </g>
</svg>