<?xml version="1.0" encoding="UTF-8"?><svg id="Layer_1" xmlns="http://www.w3.org/2000/svg" viewBox="0 0 4021 4021"><defs><style>.cls-1{fill:#fff;}.cls-2{fill:#333;}</style></defs><g><path class="cls-1" d="M3060.17,1277.62c-42.35-60.51-90.53-118.18-144.57-172.21s-111.71-102.22-172.21-144.57L960.83,2743.38c42.35,60.51,90.53,118.18,144.57,172.21,54.04,54.04,111.71,102.22,172.21,144.57l1782.55-1782.55Z"/><path class="cls-2" d="M3060.17,1277.62c-42.35-60.51-90.53-118.18-144.57-172.21s-111.71-102.22-172.21-144.57L960.83,2743.38c42.35,60.51,90.53,118.18,144.57,172.21,54.04,54.04,111.71,102.22,172.21,144.57l1782.55-1782.55Z"/></g><g><path class="cls-2" d="M2010.5,3066.5c-123.71,0-224-100.29-224-224,0-123.71,100.29-224,224-224s224,100.29,224,224-100.29,224-224,224Z"/><circle class="cls-2" cx="2598.81" cy="2598.81" r="224"/><circle class="cls-2" cx="2842.5" cy="2010.5" r="224"/></g></svg>